<?xml version="1.0" standalone="no"?>
<svg version="1.1" id="Layer_1" xmlns="http://www.w3.org/2000/svg" xmlns:xlink="http://www.w3.org/1999/xlink" x="0px" y="0px" width="595.275px" height="595.28px" viewBox="0 0 595.275 595.28" enable-background="new 0 0 595.275 595.28" xml:space="preserve">
<path id="color_x5F_2" fill="#f1ea9b" d="M515.754,477.068l-103.142,0.641c0.043-0.094,0.074-0.192,0.076-0.298
	c0.143-7.326,1.851-14.488,2.13-21.802c14.299-5.187,28.782-10.061,42.26-17.154c14.556-7.661,26.584-18.563,35.013-32.733
	c5.106-8.583,8.725-18.041,13.346-26.921c-2.399,14.716-4.382,29.582-3.007,44.482C504.136,441.764,511.709,459.059,515.754,477.068
	z M464.091,431.616c6.297-4.151,12.088-8.984,17.124-14.78c-3.289,3.311-7.747,7.411-13.698,12.217
	C466.443,429.92,465.296,430.775,464.091,431.616z M414.182,453.738c0.016,0.004,0.031,0.009,0.046,0.014
	c0.255-0.093,0.51-0.186,0.766-0.278c-0.518,0.159-0.81,0.246-0.81,0.246L414.182,453.738z M431.751,354.032
	c-0.515-4.455-1.39-12.275-2.071-19.662C429.591,340.563,429.525,347.969,431.751,354.032z M509.519,313.053l-0.104-0.34
	c-0.547-0.133-1.098-0.255-1.651-0.368C508.867,312.743,509.519,313.053,509.519,313.053z M417.213,400.313
	c0.376,5.942,0.926,11.856,0.628,17.807c1.866-1.162,3.704-2.362,5.499-3.61c2.962-2.444,6.409-5.248,9.682-7.817
	c3.135-2.99,5.964-6.264,8.306-9.96c6.231-9.835,10.67-21.205,15.696-31.701c4.334-9.051,8.571-18.146,12.625-27.324
	c-0.075-0.09-0.097-0.205-0.032-0.355c4.362-10.029,10.698-21.07,21.43-25.338c5.581-2.22,11.317-2.52,17.061-1.562
	c-0.885-1.184-1.872-2.287-2.978-3.284c-8.147-2.005-16.685-1.065-24.904-2.497c-15.807,17.638-32.809,34.192-46.97,53.248
	c-0.4,0.538-2.199,1.384-2.699,0.52c-3.879-6.708-3.898-15.777-3.792-23.307c0.114-8.083,0.497-16.876,3.496-24.507
	c-0.157-0.216-0.224-0.494-0.117-0.83c1.311-4.115,3.072-8.206,5.51-11.788c0.461-0.678,0.996-1.441,1.591-2.202l-9.902,3.851
	c-1.829,0.901-3.632,1.845-5.377,2.864c0.443,0.167,0.695,0.533,0.44,1.111c-7.544,17.091-12.045,37.023-13.523,55.607
	c-0.35,4.396-0.661,8.967,0.031,13.347c0.79,4.996,3.394,8.948,5.708,13.333C417.098,390.609,416.888,395.188,417.213,400.313z
	 M418.925,304.432l-0.455,1.567c0.245-0.591,0.497-1.177,0.75-1.762C419.121,304.302,419.022,304.366,418.925,304.432z
	 M415.543,421.032c-0.008,0.005-0.017,0.009-0.024,0.014c0,0,0,0.006,0,0.006S415.535,421.039,415.543,421.032z M440.839,400.847
	c0.232-0.16,0.461-0.315,0.679-0.461c5.961-3.974,14.14-24.599,17.924-34.856c-0.396,0.825-0.787,1.652-1.185,2.477
	c-4.723,9.791-8.68,20.951-15.059,29.8C442.444,398.854,441.653,399.863,440.839,400.847z M251.417,372.59
	c-1.34-4.651-2.536-9.169-3.611-13.495c0.774,4.149,1.729,8.231,3.112,12.155C251.078,371.701,251.253,372.143,251.417,372.59z
	 M199.611,343.797c-1.629-6.589-5.626-12.104-9.619-17.469c-0.116-0.156,0.412-0.501,1.055-0.745
	c0.061-0.048,0.123-0.095,0.202-0.145c4.877-3.061,7.207-6.784,5.685-12.5c-1.133-4.258-2.668-8.344-3.314-12.723
	c-0.065-0.44,0.301-0.813,0.792-1.05c-1.799-0.476-3.58-0.98-5.331-1.532c-1.474,19.246-2.928,38.493-4.582,57.724
	c0.09,0.234,0.194,0.418,0.318,0.522c0.227,0.191-0.006,0.468-0.421,0.709c-0.042,0.481-0.08,0.962-0.122,1.443
	c-1.045,12.008-2.121,24.019-3.479,35.997c-0.193,1.705-0.354,3.46-0.521,5.233c5.15-10.819,11.222-21.226,15.54-32.45
	C198.554,359.686,201.519,351.515,199.611,343.797z M239.469,322.546c-1.092-4.038-2.125-6.667-3.281-7.493
	c-0.572-0.409-1.448-0.929-2.539-1.524c0.076,0.088,0.155,0.169,0.23,0.258C236.186,316.538,238,319.477,239.469,322.546z
	 M151.266,323.856c0.53,0.16,0.107,0.547-0.535,0.857c-2.938,6.321-7.103,13.146-7.981,20.176c-0.939,7.521,2.21,14.574,5.769,21.03
	c6.696,12.147,14.625,23.461,22.614,34.756c-0.302-1.704-0.599-3.4-0.916-5.071c-2.326-12.253-4.467-24.542-6.525-36.844
	c-3.189-19.063-6.857-38.316-8.748-57.601l-1.294-6.767c-2.01,0.327-4.014,0.702-6.01,1.123l-0.553,0.169
	c-1.131,5.911-4.367,10.863-5.953,16.59C139.145,319.461,145.311,322.053,151.266,323.856z M276.988,414.458
	c-6.668-5.301-12.542-11.334-16.672-18.09c-4.062-5.751-7.488-11.973-10.154-18.642c-3.955-9.893-5.499-20.117-7.217-30.57
	c-1.69-10.28-3.554-21.533-10.043-30.037c-0.807-1.058-1.663-2.035-2.557-2.948c-0.629,0.031-1.19-0.185-1.19-0.768
	c0-0.13,0-0.261,0-0.391c-8.731-8.039-20.893-10.32-32.59-13.287c0.878,5.504,3.565,10.718,3.827,16.291
	c0.223,4.724-3.349,7.888-6.992,10.223c3.948,5.294,8.307,11.16,9.315,17.823c1.066,7.048-0.88,14.031-3.398,20.578
	c-5.684,14.774-14.187,28.231-20.047,42.878c-0.385,2.311-0.885,4.58-1.615,6.73c-0.046,0.135-0.147,0.257-0.28,0.367
	c0.095,0.293,0.181,0.592,0.281,0.883c0.322,0.933-2.554,1.77-2.897,0.776c-0.972-2.812-1.698-5.741-2.319-8.703
	c-10.362-14.577-21.708-29.115-29.13-45.427c-2.57-5.649-4.684-11.829-3.314-18.096c1.483-6.785,4.853-13.031,7.777-19.284
	c-4.966-1.592-11.258-4.339-9.888-10.564c1.35-6.129,4.93-11.425,6.24-17.608l-31.721,9.693c-2.789,1.123-5.518,2.348-8.111,3.75
	c-15.835,8.567-21.25,25.465-23.539,42.272c-5.751,42.23,1.068,84.92,1.168,127.28c0,0.046-0.012,0.089-0.02,0.133h147.619
	l-0.128-2.028c-0.797,0.189-1.689,0.026-1.69-0.725c-0.077-42.374-5-84.565-5.078-126.938c-0.002-1.1,2.912-1.658,2.914-0.302
	c0.039,20.822,1.247,41.6,2.475,62.378c0.252,0.162,0.426,0.415,0.44,0.779c0.156,4.066,1.143,7.905,2.732,11.525
	c4.388,5.942,10.875,14.17,17.854,21.119c5.871,4.59,12.203,8.465,17.858,11.606c16.203,9,35.747,17.568,54.69,18.488
	c4.91-10.307,7.866-21.373,12.028-31.981c0.026-0.067,0.07-0.131,0.121-0.192c-17.508-6.303-35.35-13.177-50.544-24.135
	C281.054,417.771,278.989,416.146,276.988,414.458z"></path>
<path id="color_x5F_1" d="M181.897,227.999c-0.42,0.535-1.277,0.746-1.921,0.759c-2.672,0.056-5.297,0.683-7.979,0.726
	c-0.395,0.006-1.175-0.193-0.752-0.73c0.419-0.533,1.279-0.749,1.921-0.759c2.679-0.042,5.302-0.67,7.979-0.726
	C181.54,227.261,182.318,227.463,181.897,227.999z M199.298,228.374c1.935,0,3.869,0,5.803,0c1.674,0,2.208-2.171,0.244-2.171
	c-1.935,0-3.869,0-5.803,0C197.868,226.203,197.334,228.374,199.298,228.374z M187.031,262.302c-1.336,2.54-3.683,5.032-6.833,4.475
	c-3.12-0.551-3.957-4.073-4.011-6.75c-0.028-1.375,2.912-1.772,2.943-0.191c0,0.034,0.003,0.078,0.004,0.113
	c0.531-0.177,1.18-0.335,1.705-0.14c1.624,0.604,3.308,0.642,5.019,0.643c0.552,0,0.619,0.306,0.156,0.583
	c-0.037,0.022-0.08,0.038-0.118,0.059C186.737,261.07,187.471,261.465,187.031,262.302z M184.569,261.535
	c-0.203,0.031-0.406,0.05-0.603,0.05c-1.624-0.001-3.198-0.07-4.746-0.465c0.165,1.351,0.612,2.923,1.796,3.377
	c1.499,0.575,2.669-1.52,3.229-2.582C184.322,261.769,184.434,261.642,184.569,261.535z M111.635,357.973
	c0,39.412,0,78.823,0,118.234c0,1.499,2.933,1.038,2.933-0.233c0-39.412,0-78.823,0-118.234
	C114.567,356.241,111.635,356.702,111.635,357.973z M422.561,253.53c-7.089-3.33-0.853-13.291,1.704-17.772
	c0.283-0.496-2.432-0.292-2.868,0.472c-0.428,0.75-0.925,1.608-1.437,2.537c0.585-1.398,0.708-2.829,0.709-4.346
	c0.001-1.476-2.928-0.998-2.93,0.245c-0.001,1.41-0.035,2.786-0.64,4.086c-0.625,1.344,1.757,1.396,2.569,0.549
	c-2.839,5.26-5.783,12.46,0.531,15.426C420.87,255.041,423.53,253.986,422.561,253.53z M434.06,237.567
	c-0.001,1.41-0.035,2.786-0.64,4.086c-0.684,1.471,2.242,1.398,2.759,0.287c0.69-1.484,0.81-3.003,0.811-4.618
	C436.991,235.847,434.062,236.324,434.06,237.567z M432.709,228.884c2.452-0.537,4.803,0.11,6.889,1.43
	c0.685,0.433,3.08-0.753,2.734-0.972c-2.756-1.744-5.904-2.166-9.07-1.472c-0.49,0.107-1.43,0.267-1.704,0.77
	C431.318,229.083,432.592,228.91,432.709,228.884z M418.339,228.309c1.451,0,2.901,0,4.352,0c0.617,0,1.513-0.467,1.604-1.141
	c0.102-0.75-0.789-0.897-1.325-0.897c-1.451,0-2.901,0-4.352,0c-0.617,0-1.513,0.467-1.604,1.141
	C416.912,228.161,417.802,228.309,418.339,228.309z M425.818,261.145c-0.287-0.268,0.855-0.871,1.774-1.055
	c2.8-1.872,5.898-3.196,8.916-4.684c0.348-0.172,2.023-0.792,2.279-0.215c1.437,3.238-0.551,6.098-3.51,7.452
	C431.992,264.146,428.445,263.597,425.818,261.145z M429.089,260.633c1.889,1.533,4.677,2.69,6.361,0.224
	c0.902-1.32,1.129-2.7,0.71-4.136C433.724,257.884,431.297,259.048,429.089,260.633z M519.304,479.328
	c0.242,1.208-2.664,1.943-2.897,0.776c-0.203-1.015-0.425-2.026-0.652-3.036c-4.045-18.009-11.618-35.304-13.323-53.785
	c-1.375-14.901,0.607-29.767,3.007-44.482c-4.621,8.88-8.24,18.337-13.346,26.921c-8.429,14.169-20.457,25.072-35.013,32.733
	c-13.478,7.093-27.961,11.967-42.26,17.154c-0.279,7.314-1.987,14.476-2.13,21.802c-0.002,0.106-0.033,0.204-0.076,0.298
	c-0.446,0.977-2.875,1.274-2.849-0.038c0.138-7.052,1.725-13.952,2.093-20.982c-0.982,0.36-1.962,0.724-2.94,1.09
	c0.004,0.833-2.429,1.543-2.947,0.564c-0.01-0.018-0.018-0.037-0.027-0.054c-0.127,0.158-0.324,0.313-0.621,0.453
	c-7.226,3.4-14.115,7.471-21.611,10.277c-0.603,3.079-3.275,4.707-6.489,4.028c-0.013,0.018-0.02,0.034-0.039,0.053
	c-2.222,2.295-5.833,2.807-9.099,1.973c-0.232,4.786-4.75,5.943-9.021,5.036c-0.164,0.164-0.364,0.293-0.538,0.356
	c-2.7,0.986-6.038,1.888-8.86,0.797c-1.672-0.646-3.183-1.943-3.442-3.817c-0.005-0.041-0.003-0.078-0.008-0.118
	c-2.133,1.078-5.037,1.881-7.177,0.895c-0.319-0.147-0.575-0.318-0.796-0.501c-0.522,0.243-1.126,0.446-1.392,0.44
	c-3.822-0.082-7.55-1.089-11.354-1.146c-0.174,0.478-0.688,0.902-1.434,0.896c-20.855-0.188-42.698-9.437-60.467-19.679
	c-12.669-7.302-28.084-17.854-34.757-31.958c0.951,16.783,1.748,33.572,1.778,50.39c0.001,0.491-0.581,0.873-1.224,1.025
	c-0.797,0.189-1.689,0.026-1.69-0.725c-0.077-42.374-5-84.565-5.078-126.938c-0.002-1.1,2.912-1.658,2.914-0.302
	c0.039,20.822,1.247,41.6,2.475,62.378c0.252,0.162,0.426,0.415,0.44,0.779c0.156,4.066,1.143,7.905,2.732,11.525
	c3.601,8.199,10.345,15.248,17.854,21.119c5.871,4.59,12.203,8.465,17.858,11.606c16.203,9,35.747,17.568,54.69,18.488
	c4.91-10.307,7.866-21.373,12.028-31.981c0.026-0.067,0.07-0.131,0.121-0.192c-17.508-6.303-35.35-13.177-50.544-24.135
	c-2.14-1.543-4.204-3.168-6.206-4.856c-6.327-5.336-11.938-11.387-16.672-18.09c-4.062-5.751-7.488-11.973-10.154-18.642
	c-3.955-9.893-5.499-20.117-7.217-30.57c-1.69-10.28-3.554-21.533-10.043-30.037c-0.807-1.058-1.663-2.035-2.557-2.948
	c-0.629,0.031-1.19-0.185-1.19-0.768c0-0.13,0-0.261,0-0.391c-8.731-8.039-20.893-10.32-32.59-13.287
	c0.878,5.504,3.565,10.718,3.827,16.291c0.223,4.724-3.349,7.888-6.992,10.223c3.948,5.294,8.307,11.16,9.315,17.823
	c1.066,7.048-0.88,14.031-3.398,20.578c-5.684,14.774-14.187,28.231-20.047,42.878c-0.385,2.311-0.885,4.58-1.615,6.73
	c-0.046,0.135-0.147,0.257-0.28,0.367c0.095,0.293,0.181,0.592,0.281,0.883c0.322,0.933-2.554,1.77-2.897,0.776
	c-0.972-2.812-1.698-5.741-2.319-8.703c-10.362-14.577-21.708-29.115-29.13-45.427c-2.57-5.649-4.684-11.829-3.314-18.096
	c1.483-6.785,4.853-13.031,7.777-19.284c-4.966-1.592-11.258-4.339-9.888-10.564c1.35-6.129,4.93-11.425,6.24-17.608
	c0.021-0.099,0.039-0.199,0.059-0.298c-5.11,1.208-10.167,2.669-15.152,4.266c-5.469,1.751-11.17,3.528-16.628,5.725
	c-2.789,1.123-5.518,2.348-8.111,3.75c-15.835,8.567-21.25,25.465-23.539,42.272c-5.751,42.23,1.068,84.92,1.168,127.28
	c0,0.046-0.012,0.089-0.02,0.133c-0.207,1.096-2.901,1.512-2.905,0.129c-0.056-23.723-2.102-47.365-2.962-71.06
	c-0.774-21.336-1.246-43.432,3.185-64.444c3.188-15.121,10.222-29.697,24.999-36.412c15.662-7.116,32.619-12.734,49.632-15.494
	c-0.268-0.752-0.339-1.411-0.066-1.857c0.064-0.105,0.154-0.196,0.254-0.28c1.26-2.295,3.169-4.703,3.308-7.353
	c0.018-0.336,0.345-0.621,0.773-0.811c-0.096-0.186,0.041-0.395,0.307-0.585c0.33-2.057,0.508-4.161,0.477-6.257
	c-0.446,0.121-0.906,0.132-1.228-0.044c-13.726-7.532-22.787-20.026-23.755-35.803c-0.721-11.759-0.066-24.411,11.688-30.266
	c-0.457-0.071-0.734-0.311-0.491-0.783c3.51-6.809,9.767-9.905,17.023-11.391c4.06-0.832,8.206-1.082,12.307-1.627
	c4.101-0.545,7.931-1.723,11.93-2.708c11.724-2.89,32.719-5.178,32.921,12.561c0.068,5.981-3.519,9.647-8.237,11.905
	c0.573,5.701,1.175,11.436,1.456,17.176c0.393,0.166,0.761,0.367,1.063,0.664c1.862,1.828,1.482,6.592,1.41,8.899
	c-0.082,2.64,0.458,8.552-1.822,10.583c-0.473,0.421-0.973,0.702-1.493,0.896c-0.784,5.089-2.254,10.072-5.236,14.083
	c-2.792,3.756-7.223,5.597-11.509,7.047c-7.346,2.485-9.697,6.391-9.297,14.244c0.004,0.078-0.025,0.152-0.069,0.224
	c0.091,0.082,0.126,0.191,0.067,0.337c-0.322,0.785-0.544,1.592-0.733,2.407c0.868,0.375,1.752,0.728,2.651,1.06
	c0.822-0.223,1.76-0.135,1.709,0.527c-0.002,0.025-0.004,0.051-0.006,0.076c13.15,4.449,28.928,5.408,39.9,13.902
	c0-57.738,0-115.477,0-173.215c0-0.193,0.098-0.37,0.253-0.522c0.237-0.375,0.709-0.679,1.335-0.679c41.818,0,83.637,0,125.456,0
	c-1.411-4.78-1.025-8.48,1.204-10.71c1.35-1.349,3.244-2.033,5.631-2.033c2.863,0,6.459,1.021,10.474,2.967
	c2.697-7.788,6.475-12.048,10.73-12.048s8.033,4.26,10.73,12.048c4.016-1.945,7.611-2.967,10.475-2.967
	c2.386,0,4.281,0.684,5.63,2.033c3.009,3.011,2.667,8.694-0.932,16.106c7.787,2.698,12.047,6.476,12.047,10.729
	s-4.26,8.031-12.047,10.729c3.599,7.412,3.941,13.095,0.933,16.105c-1.35,1.35-3.245,2.034-5.631,2.034h0
	c-0.467,0-0.959-0.037-1.464-0.091c0,45.839,0,91.677,0,137.516c1.815-3.578,4.216-6.87,7.462-9.701
	c2.508-2.187,5.207-4.074,8.018-5.781c-11.516-5.162-9.615-25.109-4.169-34.012c0.033-0.054,0.076-0.104,0.121-0.152
	c-0.004-0.007-0.01-0.013-0.015-0.019c-9.609-13.492-0.773-32.579-1.265-47.541c-0.003-0.082,0.015-0.16,0.042-0.235
	c-0.418-0.324-0.798-0.776-1.14-1.336c-0.987-0.924-1.913-2.104-2.765-3.603c-4.014-7.064-3.12-16.862,4.594-21.142
	c10.081-5.594,21.657-1.441,31.645,2.061c0.393,0.138,0.584,0.341,0.643,0.566c11.302,3.336,23.075,0.008,34.633,1.541
	c0.973,0.129,1.886,0.316,2.772,0.531c0.1-0.019,0.205-0.036,0.299-0.057c0.813-0.181,1.825,0.264,2.956,1.101
	c5.782,2.384,9.316,6.94,11.158,12.894c0.44,1.02,0.744,2.328,0.932,3.866c0.261,1.45,0.446,2.958,0.558,4.521
	c0.689,9.691-0.694,19.177-2.588,28.663c-1.055,5.286-2.215,10.565-3.022,15.896c-0.541,3.574-1.456,7.359-0.481,10.934
	c1.675,6.143,5.081,11.785,8.631,17.019c1.373,2.024,2.777,4.03,4.279,5.961c0.497,0.639,0.992,1.282,1.518,1.897
	c1.023,1.198,0.647,0.311-0.522,0.645c0.785-0.159,1.63,0.043,1.616,0.81c-0.028,1.528-0.176,2.604-0.7,3.936v0.827
	c1.105,1.215,2.121,2.558,3.052,3.997c0.54,0.154,0.615,0.419,0.443,0.693c6.452,10.489,8.473,25.792,6.126,36.71
	c-1.693,7.877-5.38,15.237-9.229,22.36c-3.035,18.013-6.472,36.661-3.829,54.905C508.391,444.246,515.701,461.316,519.304,479.328z
	 M508.109,310.454c-0.885-1.184-1.872-2.287-2.978-3.284c-8.147-2.005-16.685-1.065-24.904-2.497
	c-15.807,17.638-32.809,34.192-46.97,53.248c-0.4,0.538-2.199,1.384-2.699,0.52c-3.879-6.708-3.898-15.777-3.792-23.307
	c0.114-8.083,0.497-16.876,3.496-24.507c-0.157-0.216-0.224-0.494-0.117-0.83c1.311-4.115,3.072-8.206,5.51-11.788
	c0.461-0.678,0.996-1.441,1.591-2.202l-9.902,3.851c-1.829,0.901-3.632,1.845-5.377,2.864c0.443,0.167,0.695,0.533,0.44,1.111
	c-7.544,17.091-12.045,37.023-13.523,55.607c-0.35,4.396-0.661,8.967,0.031,13.347c0.79,4.996,3.394,8.948,5.708,13.333
	c2.474,4.688,2.264,9.268,2.589,14.393c0.376,5.942,0.926,11.856,0.628,17.807c1.866-1.162,3.704-2.362,5.499-3.61
	c3.438-2.39,6.7-4.973,9.682-7.817c3.135-2.99,5.964-6.264,8.306-9.96c6.231-9.835,10.67-21.205,15.696-31.701
	c4.334-9.051,8.571-18.146,12.625-27.324c-0.075-0.09-0.097-0.205-0.032-0.355c4.362-10.029,10.698-21.07,21.43-25.338
	C496.629,309.795,502.365,309.496,508.109,310.454z M457.927,292.88c-6.516,2.042-10.278,8.349-12.24,15.161
	c4.078,1.379,4.873,5.251,7.099,8.388c3.499-4.5,7.251-8.793,10.799-13.256c0.453-0.569,3.266-0.956,2.638-0.165
	c-4.067,5.115-8.423,9.99-12.332,15.232c-0.356,0.478-2.184,1.095-2.68,0.59c-2.53-2.572-3.292-6.559-6.078-8.657
	c-0.825,3.551-1.198,7.132-1.245,10.226c-0.021,1.36-2.965,1.762-2.941,0.199c0.057-3.774,0.583-7.944,1.701-11.961
	c-0.446,0.238-0.983,0.345-1.422,0.171c-2.788-1.104-5.527,0.495-8.138,1.671c-2.844,7.083-3.29,15.521-3.396,23.039
	c-0.004,0.279-0.008,0.567-0.012,0.852c-0.089,6.193-0.154,13.599,2.071,19.662c0.176,0.479,0.367,0.949,0.572,1.409
	c13.888-18.201,30.23-34.244,45.489-51.267c-1.634-0.392-3.254-0.888-4.851-1.558c-5.354-2.248-10.606-5.561-14.519-9.982
	C458.299,292.731,458.13,292.817,457.927,292.88z M444.523,303.384c-0.395-0.134-0.68-0.43-0.675-0.919
	c0.024-2.121,0.287-4.251,0.212-6.372c-0.024-0.685,0.022-2.004-0.534-2.551c-0.28-0.276-2.629,1.838-2.658,1.87
	c-3.305,3.527-5.549,7.989-7.188,12.544c2.984-1.287,5.822-2.492,9.204-1.153c0.106,0.042,0.198,0.089,0.276,0.139
	C443.555,305.728,444.009,304.538,444.523,303.384z M453.349,199.683c0.896,0.229,1.754,0.371,2.505,0.371
	c0.715,0,1.65-0.044,2.708-0.114C456.816,199.919,455.078,199.844,453.349,199.683z M419.825,268.394
	c5.28,4.736,12.195,7.132,17.805,11.433c4.316,3.309,6.588,7.664,9.136,12.357c0.128,0.235-0.034,0.485-0.333,0.695
	c0.774,1.487,0.744,3.839,0.598,5.949c2.447-3.606,5.731-6.467,10.013-7.899c-1.269-1.677-2.353-3.493-3.183-5.458
	c-4.105-9.71-4.59-21.18-4.516-31.59c0.087-12.375,1.267-24.708,1.388-37.083c-4.408-2.663-9.646-1.493-14.992,0.322
	c-0.948,0.625-2.474,1.125-4.3,1.533c-5.091,1.837-10.102,3.477-14.41,2.176c0.021,7.919-1.704,15.625-2.511,23.488
	C413.708,252.233,413.292,262.534,419.825,268.394z M401.067,321.744c0-47.516,0-95.031,0-142.547
	c-1.879-0.496-3.924-1.269-6.099-2.322c-1.697,4.899-3.821,8.399-6.223,10.324c0,64.146,0,128.29,0,192.435
	c1.675,0.163,1.073,2.071-0.5,2.072c-44.317,0.03-88.634,0.058-132.952,0.087c1.642,3.416,3.47,6.717,5.475,9.895
	c0.137-0.035,0.283-0.059,0.441-0.059c42.814,0.014,85.62,1.055,128.435,1.085c0.706-2.892,1.406-5.785,2.082-8.685
	c3.43-14.73,5.493-29.308,6.823-44.351c0.518-5.855,1.375-11.745,3.235-17.197C401.372,322.401,401.067,322.173,401.067,321.744z
	 M359.349,134.864c1.2,0.108,1.251,1.094,0.619,1.667c0.497,1.23,1.102,2.53,1.824,3.893l0.85,1.604l-1.735,0.533
	c-4.251,1.307-7.492,2.925-9.459,4.649c-0.142,0.124-0.285,0.248-0.414,0.373c-1.139,1.111-1.746,2.259-1.746,3.392
	c0,3.032,4.343,6.178,11.618,8.414l1.735,0.533l-0.85,1.604c-3.564,6.723-4.412,12.018-2.267,14.164
	c0.767,0.766,1.948,1.155,3.51,1.155c2.748,0,6.431-1.183,10.653-3.422l1.604-0.85l0.533,1.735
	c2.234,7.275,5.379,11.619,8.413,11.619s6.179-4.343,8.413-11.619l0.533-1.735l1.604,0.85c4.223,2.238,7.907,3.421,10.654,3.422
	c0,0,0,0,0,0c1.562,0,2.743-0.389,3.509-1.155c2.145-2.146,1.297-7.44-2.267-14.163l-0.85-1.604l1.735-0.533
	c7.275-2.236,11.618-5.381,11.618-8.414s-4.343-6.178-11.618-8.414l-1.735-0.533l0.85-1.604c3.564-6.723,4.412-12.018,2.267-14.164
	c-0.766-0.766-1.947-1.154-3.509-1.154c-2.747,0-6.432,1.184-10.655,3.422l-1.604,0.85l-0.533-1.735
	c-2.234-7.275-5.379-11.619-8.413-11.619s-6.179,4.343-8.413,11.619l-0.533,1.735l-1.604-0.85
	c-4.223-2.238-7.907-3.422-10.654-3.422c-1.563,0-2.743,0.389-3.509,1.155C358.016,127.77,357.993,130.84,359.349,134.864z
	 M175.971,297.176c1.762,1.354,3.154,3.083,4.698,4.662c0.553-2.271,0.708-4.638,1.152-6.94c-0.072-0.033-0.146-0.063-0.218-0.096
	c-0.777-0.358-0.236-0.975,0.552-1.343c0.161-0.602,0.346-1.198,0.585-1.782c0.01-0.025,0.029-0.048,0.043-0.072
	c-0.026-0.027-0.043-0.058-0.045-0.095c-0.055-1.071-0.07-2.171-0.017-3.265c-0.906,1.062-1.782,2.149-2.645,3.239
	c-0.866,1.094-1.73,2.193-2.541,3.329c-0.255,0.357-0.512,0.717-0.739,1.093c-0.154,0.256-0.205,0.367-0.227,0.4
	C176.573,296.611,176.326,296.932,175.971,297.176z M170.343,307.619c-0.144,0.281-0.4,0.515-0.703,0.679
	c-0.015,1.456,0.46,2.951,1.354,3.997c0.038,0.044,0.075,0.09,0.114,0.132c0.915,0.99,2.233,1.523,3.9,1.111
	c4.003-0.989,5.208-5.129,4.923-8.809c-2.07-1.6-3.618-3.722-5.52-5.483C173.276,302.147,171.766,304.847,170.343,307.619z
	 M177.9,394.403c1.342-11.979,2.439-23.987,3.479-35.996c0.069-0.8,0.133-1.6,0.202-2.4c-0.51-1.58-0.439-4.411-0.56-5.403
	c-0.602-4.939-1.138-9.886-1.667-14.833c-0.537-5.02-1.059-10.041-1.598-15.061c-0.172-1.608,0.038-4.493-0.564-6.252
	c-0.66,0.287-1.373,0.514-2.146,0.665c-1.44,0.281-2.796,0.214-3.984-0.14c-0.532,14.225-4.137,28.234-4.288,42.484
	c-0.001,0.153-0.081,0.291-0.204,0.417c0.07,0.415,0.141,0.83,0.211,1.244c2.056,12.214,4.168,24.422,6.502,36.586
	c0.685,3.569,1.279,7.246,2.027,10.878c0.345,0.49,0.692,0.979,1.037,1.47C177.119,403.523,177.408,398.8,177.9,394.403z
	 M179.832,313.22c0,0.013-0.007,0.025-0.008,0.039c0.002,0,0.005-0.001,0.008-0.001C179.832,313.245,179.832,313.232,179.832,313.22
	z M166.776,307.978c0.008-0.069,0.031-0.136,0.063-0.201c-3.744-2.094-6.681-5.748-9.066-9.194c-0.038-0.055-0.089-0.125-0.14-0.194
	c1.472,16.132,4.236,32.25,7.006,48.256c1.218-11.124,3.471-22.175,3.59-33.375c0-0.013,0.006-0.025,0.007-0.039
	C167.107,311.967,166.521,310.173,166.776,307.978z M184.46,296.012c-0.391,2.63-0.6,5.298-1.651,7.768
	c0.333,3.569-0.739,6.95-3.173,9.125c0.085,0.05,0.161,0.108,0.206,0.188c0.914,1.625,0.62,5.04,0.813,6.841
	c0.502,4.699,0.992,9.399,1.495,14.098c0.236,2.205,0.472,4.41,0.713,6.614c1.188-14.645,2.3-29.296,3.424-43.947
	C185.672,296.479,185.064,296.249,184.46,296.012z M208.892,255.771c-0.841,0.009-1.699-0.021-2.556,0.042
	c-1.168,0.087-2.252,0.288-2.935-0.037c-1.737,1.201-3.802,1.762-5.968,1.455c-1.949-0.277-0.186-2.032,1.071-1.854
	c1.511,0.215,2.62-0.152,3.72-1.21c0.13-0.125,0.283-0.234,0.448-0.324c0.161-3.629-1.063-5.99-2.445-9.011
	c-0.242,0.167-0.549,0.276-0.918,0.276c-2.514,0-5.028,0-7.542,0c-0.078,3.227-0.429,6.807-2.482,9.104
	c-2.028,2.27-6.02,1.435-8.589,1.549c-2.755,0.122-6.742,0.875-8.986-1.222c-2.587-2.417-2.502-8.198-2.99-11.417
	c-0.01-0.069-0.022-0.143-0.034-0.214c-0.295,0.095-0.553,0.158-0.685,0.158c-2.519,0-5.037,0-7.555,0
	c0.063,0.572,0.137,1.146,0.226,1.72c0.071,0.047,0.147,0.091,0.215,0.14c0.107,0.076,0.04,0.202-0.13,0.341
	c0.068,0.406,0.133,0.812,0.215,1.219c0.155,0.77-2.759,1.465-2.897,0.776c-0.106-0.528-0.195-1.054-0.279-1.58
	c-1.926-1.275-4.291-2.125-6.616-2.173c-0.928,0.172-1.931,0.41-2.94,0.737c-2.403,1.304-4.151,4.113-2.903,6.753
	c1.591,3.365,5.383,4.364,8.498,5.823c8.078,3.783,8.654,16.719,7.371,24.676c4.338,4.535,9.216,8.512,13.217,13.357
	c0.621-0.929,1.446-1.821,1.735-2.199c2.03-2.658,4.116-5.335,6.463-7.724c0.153-0.156,0.371-0.271,0.616-0.35
	c0.636-2.483,1.926-4.693,4.395-6.126c4.424-2.566,10.136-2.983,13.991-6.508C206.003,267.945,207.972,261.886,208.892,255.771z
	 M152.882,258.783c-0.196-0.144-0.398-0.276-0.608-0.387c-0.164-0.086-0.338-0.17-0.516-0.254
	C152.128,258.353,152.502,258.566,152.882,258.783z M176.097,235.434c-4.479-0.717-5.262,1.171-4.722,5.202
	c0.388,2.892,0.761,5.855,1.408,8.7c0.481,2.117,1.11,4.924,3.673,5.319c2.776,0.427,5.702,0.016,8.502,0.076
	c3.357,0.072,4.124-5.232,4.037-9.857c-0.525-0.363-0.496-1.068-0.062-1.546c-0.106-1.794-0.321-3.362-0.529-4.285
	c-1.144-5.085-6.522-4.137-10.796-3.975C177.039,235.295,176.387,235.48,176.097,235.434z M203.956,235.434
	c-5.576-1.311,0.343,10.657,1.017,12.342c0.799,1.999,0.585,3.845,0.57,5.95c-0.013,1.685,2.002,1.165,3.499,1.006
	c0.397-3.025,0.559-6.036,0.641-8.792c0.107-3.59,0.046-7.17-0.122-10.746c-1.213-0.328-2.627-0.226-3.93-0.153
	C205.025,235.296,204.268,235.507,203.956,235.434z M208.204,218.304c-3.295,1.135-6.861,1.75-10.007,2.087
	c-0.387,0.042-0.774,0.072-1.162,0.108c-0.741,0.146-1.182,0.22-1.182,0.22l-1.12-0.033c-10.684,0.728-21.323-0.338-32.014-0.532
	c-1.634,7.243-2.985,14.468-2.372,21.823c2.731,0,5.463,0,8.194,0c-0.367-2.414-0.652-5.439,1.673-6.77
	c2.279-1.304,4.903-1.291,7.428-0.953c0.407-0.147,0.794-0.256,0.967-0.256c2.981-0.01,7.574-0.868,10.376,0.608
	c2.561,1.348,2.846,5.339,2.814,7.891c-0.001,0.112-0.002,0.228-0.003,0.342c2.528,0,5.056,0,7.583,0
	c-1.933-5.231,0.738-9.402,6.096-8.619c0.368-0.129,0.707-0.221,0.864-0.222c0.893-0.005,2.016-0.122,3.144-0.138
	C209.205,228.668,208.721,223.487,208.204,218.304z M216.057,209.34c-0.744,1.792-1.681,3.381-2.688,4.53
	C214.658,212.662,215.604,211.173,216.057,209.34z M174.545,196.72h0.309c0,0,0.329-0.071,0.884-0.195
	C175.341,196.591,174.943,196.656,174.545,196.72z M156.713,290.477c0,0.132-0.046,0.285-0.152,0.459
	c-0.372,0.608,3.691,6.149,4.357,7.052c2.062,2.795,4.408,5.888,7.458,7.727c1.29-2.457,2.588-4.895,3.542-7.516
	c0.107-0.293,0.354-0.515,0.657-0.664c0.041-0.103,0.138-0.211,0.278-0.317c-0.072-0.033-0.136-0.073-0.178-0.128
	c-3.72-4.832-8.386-8.727-12.685-13.003C159.377,286.348,157.803,288.466,156.713,290.477z M171.133,400.676
	c-0.302-1.704-0.599-3.4-0.916-5.071c-2.326-12.253-4.467-24.542-6.525-36.844c-3.189-19.063-6.857-38.316-8.748-57.601
	c-0.173-1.766-0.354-3.531-0.495-5.297c-0.03-0.369,0.292-0.681,0.727-0.898c-0.169-0.263-0.334-0.527-0.488-0.792
	c-0.124,0.048-0.252,0.088-0.39,0.11c-0.216,0.034-0.432,0.076-0.648,0.111c-2.01,0.327-4.014,0.702-6.01,1.123
	c-0.181,0.039-0.361,0.081-0.542,0.12c-0.003,0.017-0.008,0.032-0.011,0.049c-1.131,5.911-4.367,10.863-5.953,16.59
	c-1.99,7.186,4.176,9.778,10.132,11.581c0.53,0.16,0.107,0.547-0.535,0.857c-2.938,6.321-7.103,13.146-7.981,20.176
	c-0.939,7.521,2.21,14.574,5.769,21.03C155.215,378.067,163.144,389.381,171.133,400.676z M193.619,300.215
	c-0.065-0.44,0.301-0.813,0.792-1.05c-1.799-0.476-3.58-0.98-5.331-1.532c-1.474,19.246-2.928,38.493-4.582,57.724
	c0.09,0.234,0.194,0.418,0.318,0.522c0.227,0.191-0.006,0.468-0.421,0.709c-0.042,0.481-0.08,0.962-0.122,1.443
	c-1.045,12.008-2.121,24.019-3.479,35.997c-0.193,1.705-0.354,3.46-0.521,5.233c5.15-10.819,11.222-21.226,15.54-32.45
	c2.741-7.125,5.706-15.295,3.798-23.013c-1.629-6.589-5.626-12.104-9.619-17.469c-0.116-0.156,0.412-0.501,1.055-0.745
	c0.061-0.048,0.123-0.095,0.202-0.145c4.877-3.061,7.207-6.784,5.685-12.5C195.8,308.681,194.265,304.595,193.619,300.215z
	 M239.469,322.546c1.666,3.48,2.882,7.131,3.83,10.886c0-62.167,0-124.334,0-186.501c0-0.193,0.098-0.37,0.254-0.522
	c0.237-0.375,0.709-0.678,1.335-0.678c34.59,0,69.181,0,103.771,0c2.017-2.1,5.285-3.964,9.675-5.485
	c-0.557-1.147-1.026-2.247-1.427-3.307c-41.614,0-83.228,0-124.842,0c0,58.297,0,116.595,0,174.892
	c0.543,0.542,1.073,1.105,1.583,1.699c0.076,0.088,0.155,0.169,0.23,0.258C236.186,316.538,238,319.477,239.469,322.546z
	 M251.417,372.59c0.893,2.429,1.87,4.813,2.929,7.148c0.106-0.02,0.216-0.033,0.334-0.033c43.717-0.029,87.436-0.058,131.153-0.086
	c0-63.634,0-127.268,0-190.902c-0.523,0.136-1.056,0.206-1.596,0.206c-4.255,0-8.033-4.26-10.73-12.048
	c-4.015,1.945-7.61,2.967-10.473,2.967c-2.387,0-4.282-0.684-5.631-2.034c-3.009-3.01-2.667-8.693,0.932-16.105
	c-7.787-2.698-12.047-6.476-12.047-10.729c0-1.087,0.282-2.142,0.826-3.156c-33.634,0-67.269,0-100.903,0c0,64.52,0,129.04,0,193.56
	c0,0.442-0.499,0.796-1.083,0.969c0.94,5.562,1.647,11.214,2.679,16.749c0.774,4.149,1.729,8.231,3.112,12.155
	C251.078,371.701,251.253,372.143,251.417,372.59z M337.559,476.859c-0.459-1.023-0.097-2.282,0.525-3.436
	c-2.189,0.779-4.718,1.285-6.415-0.079c-4.729-3.801,6.401-11.464,12.651-15.207c-1.218,0.205-2.496,0.179-3.915-0.15
	c-0.864-0.2,1.68-1.312,2.373-1.15c3.131,0.726,7.923-3.266,11.156-4.137c2.051-0.553,3.816-0.464,5.769,0.289
	c3.588,1.383,7.844,2.178,11.705,1.854c4.418-0.371,5.581-3.865,2.688-6.778c-4.282-4.311-9.74-8.038-15.12-10.844
	c-6.928-3.613-16.697,4.04-22.934,7.278c-3.977,10.394-6.924,21.178-11.78,31.221c0.013,0,0.027,0.001,0.041,0.001
	c0.253,0.002,0.463,0.042,0.637,0.107C329.213,475.5,333.327,476.595,337.559,476.859z M356.395,479.26
	c-1.174-0.511-2.24-1.174-3.077-1.949c-0.958-0.887-1.671-2.119-2.082-3.464c-0.034-0.004-0.067-0.017-0.101-0.02
	c-0.177-0.016-0.651,0-0.566-0.02c-0.407,0.095-0.486,0.074-0.857,0.515c-0.574,0.681-0.769,1.832-0.501,2.768
	C350.116,480.259,353.75,480.031,356.395,479.26z M365.596,474.133c-1.897-0.98-3.469-2.462-4.236-4.364
	c-0.145-0.358-0.269-0.729-0.369-1.104c-0.722,0.262-1.572,0.394-1.808,0.016c-0.69-1.105-2.758-4.195-4.115-2.032
	c-0.776,1.238-1.31,2.662-1.285,4.148c0.009,0.531,0.06,1.03,0.138,1.512c0.722,0.269,0.653,0.733,0.258,1.13
	c0.437,1.37,1.26,2.521,2.608,3.485c1.675,1.196,3.748,2.285,5.849,2.384c2.508,0.119,2.698-2.729,2.531-4.644
	C365.15,474.467,365.326,474.286,365.596,474.133z M376.185,472.753c-3.679-1.255-7.836-4.66-8.826-8.499
	c-0.002-0.007-0.002-0.014-0.004-0.021c-1.186-1.159-2.761-2.154-3.457-0.214c-0.629,1.754-0.406,3.891,0.634,5.47
	c1.668,2.533,7.143,6.753,10.015,3.786C374.785,473.03,375.531,472.828,376.185,472.753z M381.157,468.243
	c-1.58-2.221-3.443-4.339-5.522-6.078c-1.215-1.017-2.822-2.458-4.495-2.558c-1.076-0.064-1.137,2.887-0.986,3.472
	c0.035,0.134,0.087,0.262,0.129,0.394c0.33,0.318,0.653,0.661,0.961,1.05c0.145,0.184,0.003,0.397-0.276,0.592
	c1.011,1.869,2.626,3.47,4.323,4.656c1.196,0.836,2.639,1.76,4.132,1.925c1.383,0.153,1.493-2.048,1.522-3.016
	C380.95,468.52,381.032,468.374,381.157,468.243z M405.326,457.058c-3.81-7.87-4.988-16.471-10.648-23.353
	c-0.2,0.493-1.945,1.185-2.569,0.969c-5.48-1.895-11.337-3.036-17.085-3.731c-5.511-0.667-17.254-2.636-20.565,3.415
	c-0.458,0.837-3.256,1.092-2.885,0.412c3.249-5.938,12.222-6.151,18.099-5.876c8.287,0.388,16.817,1.736,24.686,4.446
	c-0.26-0.305-0.514-0.612-0.793-0.909c-0.664-0.707,0.964-1.541,2.028-1.441c0.072-0.054,0.158-0.112,0.261-0.173
	c6.068-3.617,12.636-7.083,19.011-10.885c-0.025-0.095-0.04-0.198-0.031-0.316c0.5-6.957-0.401-13.805-0.647-20.746
	c-0.116-3.272-0.025-6.575-1.32-9.654c-1.083-2.576-2.588-4.876-3.878-7.34c-3.88-7.408-3.752-15.501-2.934-23.643
	c1.753-17.45,5.631-35.879,12.415-52.232c0.245-0.591,0.497-1.177,0.75-1.762c-0.098,0.065-0.197,0.129-0.294,0.194
	c-2.676,1.793-5.163,3.809-7.318,6.178c-9.398,10.33-9.626,24.009-10.766,37.168c-2.391,27.601-11.664,53.875-16.435,81.053
	c-0.228,1.299-3.191,1.676-2.936,0.222c2.025-11.539,4.879-22.885,7.666-34.251c-42.352-0.034-84.696-1.048-127.048-1.081
	c6.197,9.288,13.989,17.436,23.371,24.039c15.358,10.809,32.892,17.752,50.463,24.071c0.686,0.247,0.706,0.652,0.42,1.021
	c0.053,0.027,0.097,0.06,0.129,0.098c4.212-2.283,8.37-4.76,12.899-6.333c2.791-0.97,7.07-2.579,10.056-1.45
	c3.477,1.315,6.716,3.598,9.735,5.721c2.916,2.05,6.571,4.289,8.614,7.298c4.602,6.779-7.048,8.152-11.012,7.859
	c-5.981-0.441-11.768-3.905-17.354-0.174c0.636-0.005,1.004,0.153,0.083,0.624c-3.383,1.726-6.716,3.809-9.68,6.181
	c-2.011,1.61-7.078,5.306-6.021,8.493c0.629,1.896,2.657,1.834,5.152,0.905c0.112-0.152,0.224-0.301,0.336-0.441
	c0.405-0.507,1.211-0.651,1.844-0.518c4.127-2.048,8.752-5.439,10.519-6.257c0.662-0.307,3.394-0.461,1.659,0.342
	c-3.954,1.831-7.412,4.603-11.32,6.553c0.059,0.226-0.001,0.499-0.255,0.816c-0.606,0.76-2.583,3.258-0.702,3.737
	c1.575,0.401,3.508-0.52,4.806-1.307c0.262-0.159,0.526-0.232,0.774-0.243c0.759-1.583,2.429-2.545,4.271-2.767
	c-0.185-2.18,0.447-4.399,2.177-5.816c2.705-2.216,5.532-2,7.67,0.039c0.103-1.756,0.922-3.341,2.866-4.107
	c1.371-0.541,2.618-0.611,3.765-0.328c0.667-2.543,3.402-4.219,6.28-3.449c4.112,1.1,7.625,5.137,10.093,8.619
	c7.009-2.777,13.531-6.57,20.347-9.777C404.508,456.965,404.958,456.954,405.326,457.058z M481.215,416.835
	c2.989-3.44,5.721-7.209,8.12-11.395c4.738-8.267,8.083-17.224,12.607-25.617c1.543-2.863,3.172-5.744,4.765-8.66
	c0.086-0.519,0.174-1.038,0.26-1.556c0.072-0.43,0.54-0.762,1.082-0.938c2.944-5.544,5.631-11.237,7.228-17.215
	c2.011-7.529,1.522-15.703-0.125-23.262c-1.128-5.179-2.691-10.734-5.494-15.417c-0.082-0.021-0.163-0.042-0.244-0.062
	c-0.547-0.133-1.098-0.255-1.651-0.368c-5.494-1.123-11.251-1.199-16.414,1.325c-7.821,3.823-12.93,11.157-16.732,18.829
	c-4.811,11.124-9.927,22.108-15.174,33.032c-0.396,0.825-0.787,1.652-1.185,2.477c-4.723,9.791-8.68,20.951-15.059,29.8
	c-0.755,1.047-1.545,2.057-2.359,3.041c-6.405,7.745-14.562,13.623-23.157,18.887c-0.217,0.467-0.798,0.77-1.384,0.848
	c-0.251,0.151-0.503,0.3-0.755,0.451c-0.008,0.005-0.017,0.009-0.024,0.014c-5.965,3.562-12.085,6.885-17.935,10.372
	c-0.224,0.133-0.594,0.221-0.972,0.258c6.345,7.055,7.533,16.06,11.475,24.332c1.298-0.484,2.601-0.965,3.91-1.443
	c0.259-0.663,1.42-1.029,2.185-0.827c0.016,0.004,0.031,0.009,0.046,0.014c0.255-0.093,0.51-0.186,0.766-0.278
	c16.891-6.119,34.362-12.145,49.097-21.858C470.389,427.465,476.179,422.631,481.215,416.835z M441.453,180.049
	c2.376,2.958,8.71,1.521,11.909,1.509c1.66-0.007,3.319-0.009,4.979-0.013c2.188-0.005,7.231-0.934,9.079,0.283
	c2.426,1.597,3.228,5.859,4.982,8.109c2.464,3.161,5.54,1.232,7.358-1.521c0.764-1.157,1.365-2.44,2.012-3.664
	c1.404-2.654,1.995-3.241,5.117-3.244c2.17-0.002,4.34-0.003,6.51-0.005c4.211,0.062,12.065,1.726,14.933-2.613
	c2.158-3.265,2.633-7.644,2.983-11.452c0.526-5.723,0.636-11.7,0.713-17.443c0.103-7.634-2.258-13.58-10.248-15.047
	c-8.221-1.509-16.79,0.516-25.094-0.445c-0.697-0.081-3.363,1.12-1.849,1.295c6.455,0.747,12.901,0.109,19.372,0.038
	c6.695-0.074,12.602,1.53,14.441,8.636c0.985,3.807,0.284,7.882,0.151,11.75c-0.167,4.847-0.063,9.693-0.659,14.516
	c-0.358,2.901-1.023,6.631-2.974,8.931c-0.872,1.028-3.249,1.101-5.61,0.951c0.178-0.234,0.057-0.424-0.682-0.424
	c-1.43,0-2.859,0.002-4.289,0.003c-0.026,0-0.058-0.003-0.083-0.003c-0.013,0-0.029,0.002-0.043,0.003
	c-0.996,0-1.993,0.001-2.989,0.002c-2.739,0.002-6.091-0.625-8.714,0.367c-1.999,0.756-6.729,9.422-6.629,9.485
	c-3.021-1.919-3.291-9.463-7.399-9.823c-6.086-0.533-12.537-0.104-18.662,0.127c-3.267,0.123-5.541-0.083-7.044-3.236
	c-1.39-2.915-1.783-6.512-2.074-9.685c-0.366-3.977-0.286-8.002-0.385-11.991c-0.098-3.933-0.611-7.683,0.137-11.597
	c1.451-7.589,8.597-8.129,15.02-7.981c5.908,0.136,11.741,0.576,17.635-0.106c1.247-0.144,2.532-1.459,0.498-1.224
	c-10.063,1.164-24.673-3.483-33.054,4.068c-5.06,4.56-3.242,13.225-3.096,19.104C437.875,164.524,436.867,174.339,441.453,180.049z
	 M132.813,180.049c2.375,2.958,8.71,1.521,11.909,1.509c1.66-0.007,3.319-0.009,4.979-0.013c2.188-0.005,7.232-0.934,9.079,0.283
	c2.426,1.597,3.228,5.859,4.981,8.109c2.464,3.161,5.54,1.232,7.358-1.521c0.764-1.157,1.365-2.44,2.012-3.664
	c1.404-2.654,1.996-3.241,5.117-3.244c2.17-0.002,4.34-0.003,6.51-0.005c4.211,0.062,12.065,1.726,14.934-2.613
	c2.157-3.265,2.633-7.644,2.983-11.452c0.526-5.723,0.636-11.7,0.713-17.443c0.104-7.634-2.258-13.58-10.248-15.047
	c-8.221-1.509-16.79,0.516-25.094-0.445c-0.697-0.081-3.363,1.12-1.849,1.295c6.455,0.747,12.902,0.109,19.373,0.038
	c6.694-0.074,12.602,1.53,14.441,8.636c0.986,3.807,0.284,7.882,0.151,11.75c-0.167,4.847-0.063,9.693-0.659,14.516
	c-0.358,2.901-1.022,6.631-2.974,8.931c-0.872,1.028-3.249,1.101-5.61,0.951c0.178-0.234,0.057-0.424-0.682-0.424
	c-1.43,0-2.859,0.002-4.289,0.003c-0.026,0-0.058-0.003-0.083-0.003c-0.013,0-0.029,0.002-0.043,0.003
	c-0.996,0-1.993,0.001-2.989,0.002c-2.739,0.002-6.091-0.625-8.714,0.367c-2,0.756-6.729,9.422-6.63,9.485
	c-3.021-1.919-3.29-9.463-7.399-9.823c-6.086-0.533-12.537-0.104-18.662,0.127c-3.267,0.123-5.541-0.083-7.044-3.236
	c-1.39-2.915-1.782-6.512-2.074-9.685c-0.366-3.977-0.287-8.002-0.386-11.991c-0.098-3.933-0.611-7.683,0.137-11.597
	c1.451-7.589,8.597-8.129,15.02-7.981c5.908,0.136,11.741,0.576,17.635-0.106c1.247-0.144,2.532-1.459,0.498-1.224
	c-10.064,1.165-24.673-3.483-33.054,4.068c-5.06,4.56-3.242,13.225-3.096,19.104C129.234,164.524,128.227,174.339,132.813,180.049z
	 M269.647,203.343c31.916-0.022,63.832-0.042,95.748-0.063c1.644-0.001,2.234-2.089,0.267-2.088
	c-31.916,0.021-63.832,0.041-95.748,0.063C268.27,201.256,267.679,203.345,269.647,203.343z M365.662,309.997
	c-31.916,0.021-63.832,0.042-95.748,0.063c-1.644,0.001-2.234,2.089-0.267,2.088c31.916-0.022,63.832-0.042,95.748-0.063
	C367.039,312.084,367.629,309.996,365.662,309.997z M344.989,349.181c-18.135,0.012-36.269,0.023-54.403,0.036
	c-1.644,0.001-2.234,2.089-0.267,2.088c18.135-0.012,36.269-0.023,54.403-0.036C346.367,351.268,346.957,349.179,344.989,349.181z
	 M366.077,231.823c-6.32,0.004-12.64,0.008-18.96,0.013c-1.156,0.001-3.058,1.757-1.097,1.756c6.32-0.004,12.64-0.009,18.96-0.013
	C366.137,233.579,368.038,231.822,366.077,231.823z M337.671,231.658c-10.913,0.007-21.826,0.014-32.739,0.021
	c-1.657,0.001-2.223,2.125-0.257,2.124c10.913-0.007,21.826-0.014,32.739-0.021C339.072,233.781,339.638,231.656,337.671,231.658z
	 M270.718,232.166c-0.615,0-3.305,1.198-1.875,1.197c8.882-0.006,17.765-0.012,26.648-0.018c0.615,0,3.305-1.198,1.875-1.197
	C288.483,232.154,279.601,232.16,270.718,232.166z M366.066,250.806c-5.068,0.003-10.136,0.007-15.205,0.01
	c-1.232,0.001-3.027,1.872-1.066,1.871c5.068-0.003,10.136-0.007,15.205-0.01C366.232,252.676,368.027,250.805,366.066,250.806z
	 M315.246,252.897c8.869-0.006,17.738-0.012,26.607-0.018c1.701-0.001,2.186-2.246,0.225-2.245
	c-8.87,0.006-17.739,0.012-26.608,0.018C313.77,250.653,313.285,252.898,315.246,252.897z M269.243,252.707
	c12.303-0.008,24.605-0.017,36.908-0.025c1.188-0.001,3.045-1.805,1.084-1.804c-12.303,0.008-24.605,0.017-36.908,0.025
	C269.139,250.904,267.282,252.708,269.243,252.707z M364.592,271.352c0.58,0,3.292-1.141,1.891-1.14
	c-5.05,0.004-10.1,0.007-15.15,0.01c-0.58,0-3.292,1.141-1.891,1.14C354.492,271.359,359.542,271.356,364.592,271.352z
	 M324.417,269.914c-1.181,0.001-3.048,1.794-1.087,1.793c6.06-0.004,12.12-0.008,18.181-0.012c1.181,0,3.048-1.794,1.087-1.793
	C336.538,269.905,330.478,269.91,324.417,269.914z M295.662,271.414c6.313-0.004,12.625-0.008,18.938-0.012
	c0.6,0,3.299-1.174,1.882-1.173c-6.313,0.004-12.625,0.008-18.938,0.012C296.944,270.241,294.245,271.415,295.662,271.414z
	 M288.236,271.845c1.62-0.001,2.254-2.026,0.283-2.024c-6.196,0.004-12.392,0.009-18.588,0.013c-1.62,0.001-2.254,2.026-0.283,2.024
	C275.844,271.854,282.04,271.849,288.236,271.845z" fill="#000000"></path>
</svg>